<?xml version="1.0" encoding="utf-8"?>
<!-- Generator: Adobe Illustrator 24.1.2, SVG Export Plug-In . SVG Version: 6.00 Build 0)  -->
<svg version="1.1" id="Capa_1" xmlns="http://www.w3.org/2000/svg" xmlns:xlink="http://www.w3.org/1999/xlink" x="0px" y="0px"
	 viewBox="0 0 891 891" style="enable-background:new 0 0 891 891;" xml:space="preserve">
<style type="text/css">
	.st0{fill:#FFFFFF;}
</style>
<g>
	<path class="st0" d="M90.9,91c-11.5,117.6,9.6,266.9,65.9,419.5C213.1,663.3,293.9,790.5,379,872.5c11.6,11.1,28.3,14.7,43.4,9.2
		l102.4-37.8l23.9-8.8c21.5-7.9,32.6-31.9,24.7-53.5l-58.5-158.5c-7.9-21.5-31.9-32.6-53.5-24.7l-43,15.8
		c-22.3,8.2-47.4-1.5-58.3-22.7c-21.7-41.9-41.5-86.9-59-134.3c-17.5-47.4-31.6-94.5-42.3-140.5c-5.4-23.2,7.3-46.8,29.6-55.1
		l43-15.8c21.5-7.9,32.6-31.9,24.7-53.5L297.7,34c-7.9-21.5-31.9-32.6-53.5-24.7l-23.9,8.8L117.9,55.9C102.9,61.5,92.5,75.1,90.9,91
		z"/>
</g>
</svg>
